<svg xmlns="http://www.w3.org/2000/svg" viewBox="0 0 248 48" role="img" aria-labelledby="mpLogoTitle">
  <title id="mpLogoTitle">My Protector</title>
  <defs>
    <linearGradient id="mpFill" x1="22" y1="6" x2="22" y2="40" gradientUnits="userSpaceOnUse">
      <stop offset="0%" stop-color="#ffffff"/>
      <stop offset="100%" stop-color="#f1f5f9"/>
    </linearGradient>
    <linearGradient id="mpStroke" x1="22" y1="42" x2="22" y2="4" gradientUnits="userSpaceOnUse">
      <stop offset="0%" stop-color="#0f172a"/>
      <stop offset="35%" stop-color="#1d4ed8"/>
      <stop offset="100%" stop-color="#06b6d4"/>
    </linearGradient>
    <linearGradient id="mpTileA" x1="0%" y1="0%" x2="100%" y2="100%">
      <stop offset="0%" stop-color="#1d4ed8"/>
      <stop offset="100%" stop-color="#2563eb"/>
    </linearGradient>
    <linearGradient id="mpTileB" x1="0%" y1="0%" x2="100%" y2="100%">
      <stop offset="0%" stop-color="#22d3ee"/>
      <stop offset="100%" stop-color="#14b8a6"/>
    </linearGradient>
    <filter id="mpDrop" x="-30%" y="-30%" width="160%" height="160%">
      <feDropShadow dx="0" dy="1.25" stdDeviation="2" flood-color="#0f172a" flood-opacity="0.12"/>
    </filter>
  </defs>
  <g filter="url(#mpDrop)">
    <path
      fill="url(#mpFill)"
      stroke="url(#mpStroke)"
      stroke-width="2.4"
      stroke-linejoin="round"
      d="M22 4 L36 8.5 L36 25.5c0 7.2-5.8 13.6-14 15.8l-.5.2-.5-.2C13.8 39.1 8 32.7 8 25.5V8.5L22 4Z"
    />
  </g>
  <rect x="12.2" y="16.8" width="5.1" height="5.1" rx="1" fill="url(#mpTileA)"/>
  <rect x="18.1" y="16.8" width="5.1" height="5.1" rx="1" fill="url(#mpTileB)"/>
  <rect x="12.2" y="22.7" width="5.1" height="5.1" rx="1" fill="url(#mpTileB)"/>
  <rect x="18.1" y="22.7" width="5.1" height="5.1" rx="1" fill="url(#mpTileA)"/>
  <text
    x="48"
    y="29"
    fill="#0f172a"
    font-family="system-ui,-apple-system,'Segoe UI',Inter,Roboto,sans-serif"
    font-size="17"
    font-weight="700"
    letter-spacing="-0.03em"
  >My Protector</text>
</svg>
